<svg xmlns="http://www.w3.org/2000/svg"
  xmlns:xlink="http://www.w3.org/1999/xlink" viewBox="0 0 150 150">
  <defs>
    <style>.cls-1{stroke:#848484;fill:url(#未命名的渐变_22);}.cls-1,.cls-2{stroke-miterlimit:10;stroke-width:0.5px;}.cls-2{fill:#31c66c;stroke:#245b37;}.cls-3{opacity:0.18;fill:url(#未命名的渐变_31);}.cls-4{opacity:0.2;}</style>
    <radialGradient id="未命名的渐变_22" cx="74.95" cy="74.95" r="74.95" gradientUnits="userSpaceOnUse">
      <stop offset="0" stop-color="#919191"/>
      <stop offset="0.35" stop-color="#989898" stop-opacity="0.99"/>
      <stop offset="0.62" stop-color="#adadad" stop-opacity="0.94"/>
      <stop offset="0.87" stop-color="#d0d0d0" stop-opacity="0.86"/>
      <stop offset="1" stop-color="#eaeaea" stop-opacity="0.8"/>
    </radialGradient>
    <radialGradient id="未命名的渐变_31" cx="74.32" cy="75.31" r="43.76" gradientUnits="userSpaceOnUse">
      <stop offset="0" stop-color="#f4f4f4" stop-opacity="0"/>
      <stop offset="0.38" stop-color="#f4f4f4" stop-opacity="0.01"/>
      <stop offset="0.52" stop-color="#f3f3f3" stop-opacity="0.04"/>
      <stop offset="0.62" stop-color="#f2f2f2" stop-opacity="0.09"/>
      <stop offset="0.7" stop-color="#f1f1f1" stop-opacity="0.17"/>
      <stop offset="0.76" stop-color="#efefef" stop-opacity="0.26"/>
      <stop offset="0.82" stop-color="#ededed" stop-opacity="0.38"/>
      <stop offset="0.88" stop-color="#ebebeb" stop-opacity="0.53"/>
      <stop offset="0.93" stop-color="#e8e8e8" stop-opacity="0.69"/>
      <stop offset="0.97" stop-color="#e4e4e4" stop-opacity="0.88"/>
      <stop offset="1" stop-color="#e2e2e2"/>
    </radialGradient>
  </defs>
  <title>iot-按钮</title>
  <g id="图层_3" data-name="图层 3">
    <circle class="cls-1" cx="74.95" cy="74.95" r="74.95"/>
    <circle class="cls-2" cx="74.32" cy="75.31" r="53.38"/>
    <circle class="cls-3" cx="74.32" cy="75.31" r="45.29"/>
  </g>
  <g id="图层_55" data-name="图层 55">
    <g class="cls-4">
      <path d="M65.19,78.14c-.17.37-.39.78-.65,1.25s-.54,1-.84,1.44-.6,1-.9,1.43-.59.88-.85,1.25l-2.34-1.13c.27-.36.56-.76.87-1.21s.61-.9.89-1.36.55-.91.79-1.36.44-.83.59-1.18Zm4-1.85v4.12A4.05,4.05,0,0,1,69,81.58a1.56,1.56,0,0,1-.45.73,2.17,2.17,0,0,1-.81.45c-.33.12-.73.23-1.21.35l-1.17.28-.83-2.59.9-.21a2.37,2.37,0,0,0,.72-.28c.14-.09.2-.27.2-.54V76.66l-5.59.74.58-7.74,2-.29L65.46,69l2.14-.39c.71-.13,1.4-.27,2.06-.41S71,68,71.53,67.82s1.11-.26,1.57-.39l.55,2.63-2.07.47c-.77.18-1.57.35-2.42.51l-2.6.49L64,72l-.18,2.55,2.58-.34V72l2.79-.3v2.15l4.92-.65v2.47Zm2.71-.22c.18.19.39.45.65.78s.54.69.83,1.08.58.79.87,1.2.53.81.76,1.18l-2.36,1.82c-.18-.35-.4-.74-.65-1.16s-.51-.82-.79-1.23l-.81-1.14c-.27-.36-.51-.66-.73-.91Z"/>
      <path d="M90.72,71.24v2.22L76.07,75.38V73.17l3.27-.43.25-1-2.39.31V70.19L80,69.82l.21-.88-3.4.45V67.2l13.09-1.73v2.2l-6.85.9-.22.88,6-.79-.15,2.85Zm-13.2,4.67,11.75-1.55V80L77.52,81.54ZM80.11,79l6.44-.85V76.87l-6.44.85Zm2.08-6.63,3.87-.51.07-1-3.71.48Z"/>
      <path d="M97.4,73.89c-.17.37-.39.79-.65,1.26s-.54.95-.84,1.44-.6,1-.9,1.43-.58.88-.85,1.25l-2.34-1.13c.27-.36.56-.76.87-1.21s.61-.9.9-1.36.55-.91.79-1.36.43-.84.58-1.18Zm4-1.84v4.12a4.05,4.05,0,0,1-.14,1.17,1.56,1.56,0,0,1-.45.73,2.12,2.12,0,0,1-.8.45c-.33.12-.74.23-1.21.35l-1.18.28-.83-2.59.9-.21a2.17,2.17,0,0,0,.72-.28.6.6,0,0,0,.21-.54V72.42l-5.6.73.59-7.73,2-.29,2.11-.34,2.14-.39,2.07-.41c.66-.13,1.28-.27,1.87-.41s1.1-.27,1.56-.39l.55,2.63-2.07.47c-.77.18-1.57.34-2.42.51s-1.71.33-2.59.49l-2.58.45L96,70.29,98.61,70V67.73l2.78-.3v2.15l4.93-.65V71.4Zm2.72-.23c.17.2.39.46.65.79l.83,1.08c.29.39.58.79.86,1.2s.54.81.76,1.18l-2.36,1.82c-.18-.35-.4-.74-.65-1.16s-.51-.82-.79-1.23-.54-.78-.81-1.14-.51-.67-.72-.91Z"/>
    </g>
  </g>
</svg>
