<?xml version="1.0" standalone="no"?><!DOCTYPE svg PUBLIC "-//W3C//DTD SVG 1.1//EN" "http://www.w3.org/Graphics/SVG/1.1/DTD/svg11.dtd">
<svg t="1626167943750" class="icon" viewBox="0 0 1024 1024" version="1.1"
  xmlns="http://www.w3.org/2000/svg" p-id="9208"
  xmlns:xlink="http://www.w3.org/1999/xlink" width="64" height="64">
  <defs>
    <style type="text/css"></style>
  </defs>
  <path d="M397 469H73c-39.7 0-72-32.3-72-72V73C1 33.3 33.3 1 73 1h324c39.7 0 72 32.3 72 72v324c0 39.7-32.3 72-72 72zM73 49c-13.2 0-24 10.8-24 24v324c0 13.2 10.8 24 24 24h324c13.2 0 24-10.8 24-24V73c0-13.2-10.8-24-24-24H73zM789 458c-6.1 0-12.3-2.3-17-7L573 252c-9.4-9.4-9.4-24.6 0-33.9L772 19c9.4-9.4 24.6-9.4 33.9 0l199 199c9.4 9.4 9.4 24.6 0 33.9L806 451c-4.7 4.7-10.9 7-17 7zM623.9 235L789 400.1 954.1 235 789 69.9 623.9 235zM951 1023H627c-39.7 0-72-32.3-72-72V627c0-39.7 32.3-72 72-72h324c39.7 0 72 32.3 72 72v324c0 39.7-32.3 72-72 72zM627 603c-13.2 0-24 10.8-24 24v324c0 13.2 10.8 24 24 24h324c13.2 0 24-10.8 24-24V627c0-13.2-10.8-24-24-24H627zM397 1023H73c-39.7 0-72-32.3-72-72V627c0-39.7 32.3-72 72-72h324c39.7 0 72 32.3 72 72v324c0 39.7-32.3 72-72 72zM73 603c-13.2 0-24 10.8-24 24v324c0 13.2 10.8 24 24 24h324c13.2 0 24-10.8 24-24V627c0-13.2-10.8-24-24-24H73z" fill="#333333" p-id="9209"></path>
</svg>
